HIERARCHY
ROOT Hips
{
	OFFSET 0.000000 0.000000 0.000000
	CHANNELS 6 Xposition Yposition Zposition Xrotation Yrotation Zrotation
	JOINT C_ctrl
	{
		OFFSET 0.000000 35.040482 -0.000011
		CHANNELS 3 Xrotation Yrotation Zrotation
		JOINT Bip01
		{
			OFFSET -41.537640 41.789009 -0.000007
			CHANNELS 3 Xrotation Yrotation Zrotation
			JOINT Bip01_Pelvis
			{
				OFFSET -2.462887 0.000000 0.000000
				CHANNELS 3 Xrotation Yrotation Zrotation
				JOINT BN_Tail_01
				{
					OFFSET -11.399368 7.351341 -0.000013
					CHANNELS 3 Xrotation Yrotation Zrotation
					JOINT BN_Tail_02
					{
						OFFSET -11.365196 -0.343025 0.000012
						CHANNELS 3 Xrotation Yrotation Zrotation
						JOINT BN_Tail_03
						{
							OFFSET -15.076256 -0.454979 0.000017
							CHANNELS 3 Xrotation Yrotation Zrotation
							JOINT BN_Tail_04
							{
								OFFSET -17.395691 -0.525002 0.000016
								CHANNELS 3 Xrotation Yrotation Zrotation
								JOINT BN_Tail_05
								{
									OFFSET -16.699837 -0.504005 0.000016
									CHANNELS 3 Xrotation Yrotation Zrotation
									End Site
									{
										OFFSET 0.503998 -16.699829 0.000067
									}
								}
							}
						}
					}
				}
				JOINT Bip01_Spine
				{
					OFFSET 8.297798 5.916809 -0.000020
					CHANNELS 3 Xrotation Yrotation Zrotation
					JOINT Bip01_R_Thigh
					{
						OFFSET -8.297779 -5.916794 10.541781
						CHANNELS 3 Xrotation Yrotation Zrotation
						JOINT Bip01_R_Calf
						{
							OFFSET 5.631542 -22.906792 0.862690
							CHANNELS 3 Xrotation Yrotation Zrotation
							JOINT Bip01_R_HorseLink
							{
								OFFSET -16.984341 -19.231926 -3.555767
								CHANNELS 3 Xrotation Yrotation Zrotation
								JOINT Bip01_R_Foot
								{
									OFFSET 4.290367 -24.783146 0.578056
									CHANNELS 3 Xrotation Yrotation Zrotation
									JOINT Bip01_R_Toe0
									{
										OFFSET 3.561211 -5.815116 0.760802
										CHANNELS 3 Xrotation Yrotation Zrotation
										JOINT Bip01_R_Toe0Nub
										{
											OFFSET 16.135469 0.002017 1.534789
											CHANNELS 3 Xrotation Yrotation Zrotation
											End Site
											{
												OFFSET -0.000002 16.208284 -0.000056
											}
										}
									}
								}
							}
						}
					}
					JOINT Bip01_L_Thigh
					{
						OFFSET -8.297813 -5.916832 -10.541739
						CHANNELS 3 Xrotation Yrotation Zrotation
						JOINT Bip01_L_Calf
						{
							OFFSET 5.631535 -22.906792 -0.862625
							CHANNELS 3 Xrotation Yrotation Zrotation
							JOINT Bip01_L_HorseLink
							{
								OFFSET -16.984318 -19.231949 3.555875
								CHANNELS 3 Xrotation Yrotation Zrotation
								JOINT Bip01_L_Foot
								{
									OFFSET 4.290367 -24.783169 -0.577965
									CHANNELS 3 Xrotation Yrotation Zrotation
									JOINT Bip01_L_Toe0
									{
										OFFSET 3.561245 -5.815111 -0.760799
										CHANNELS 3 Xrotation Yrotation Zrotation
										JOINT Bip01_L_Toe0Nub
										{
											OFFSET 6.574303 -0.000005 -1.538561
											CHANNELS 3 Xrotation Yrotation Zrotation
											End Site
											{
												OFFSET 0.000004 -6.751935 0.000023
											}
										}
									}
								}
							}
						}
					}
					JOINT Bip01_Spine1
					{
						OFFSET 20.556803 -4.626213 -0.000025
						CHANNELS 3 Xrotation Yrotation Zrotation
						JOINT Saddle
						{
							OFFSET 17.608810 18.174690 -0.000143
							CHANNELS 3 Xrotation Yrotation Zrotation
							End Site
							{
								OFFSET -0.000063 -0.000061 -22.448387
							}
						}
						JOINT BN_center
						{
							OFFSET 10.743275 -13.417107 -0.172041
							CHANNELS 3 Xrotation Yrotation Zrotation
							End Site
							{
								OFFSET 22.434088 0.553078 -0.579614
							}
						}
						JOINT Bip01_Spine2
						{
							OFFSET 24.765072 -2.054115 -0.000032
							CHANNELS 3 Xrotation Yrotation Zrotation
							JOINT Handle
							{
								OFFSET 63.735676 16.430748 -16.052464
								CHANNELS 3 Xrotation Yrotation Zrotation
								JOINT IK_Chain01
								{
									OFFSET -4.713058 -6.020439 0.185448
									CHANNELS 3 Xrotation Yrotation Zrotation
									End Site
									{
										OFFSET -0.000023 -0.000023 -7.648071
									}
								}
							}
							JOINT BN_hair04_01
							{
								OFFSET 1.987491 16.256981 -2.049672
								CHANNELS 3 Xrotation Yrotation Zrotation
								JOINT BN_hair04_02
								{
									OFFSET -1.318762 -3.831451 -6.174704
									CHANNELS 3 Xrotation Yrotation Zrotation
									JOINT BN_hair04_03
									{
										OFFSET -0.827490 -5.886627 -5.656666
										CHANNELS 3 Xrotation Yrotation Zrotation
										End Site
										{
											OFFSET -2.658262 5.010620 -5.929780
										}
									}
								}
							}
							JOINT Bip01_Neck
							{
								OFFSET 25.574577 9.433014 -0.000084
								CHANNELS 3 Xrotation Yrotation Zrotation
								JOINT Bip01_R_Clavicle
								{
									OFFSET -16.535652 0.011192 6.705692
									CHANNELS 3 Xrotation Yrotation Zrotation
									JOINT Bip01_R_UpperArm
									{
										OFFSET 20.272621 -12.959984 2.510816
										CHANNELS 3 Xrotation Yrotation Zrotation
										JOINT Bip01_R_Forearm
										{
											OFFSET -13.633509 -15.503704 -0.653585
											CHANNELS 3 Xrotation Yrotation Zrotation
											JOINT Bip01_R_Hand
											{
												OFFSET 2.580030 -27.804676 -1.136415
												CHANNELS 3 Xrotation Yrotation Zrotation
												JOINT Bip01_R_Finger0
												{
													OFFSET -0.281744 -19.659061 -0.398649
													CHANNELS 3 Xrotation Yrotation Zrotation
													JOINT Bip01_Xtra02
													{
														OFFSET 4.152210 -5.712314 0.433813
														CHANNELS 3 Xrotation Yrotation Zrotation
														JOINT Bip01_Xtra02Nub
														{
															OFFSET 15.457960 0.041654 0.507982
															CHANNELS 3 Xrotation Yrotation Zrotation
															End Site
															{
																OFFSET -15.421730 -0.157725 -1.163459
															}
														}
													}
													JOINT Bip01_R_Finger0Nub
													{
														OFFSET 8.362326 -9.718440 -0.143142
														CHANNELS 3 Xrotation Yrotation Zrotation
														End Site
														{
															OFFSET -1.213036 -0.198171 9.872291
														}
													}
												}
											}
										}
									}
								}
								JOINT Bip01_L_Clavicle
								{
									OFFSET -16.535673 0.011162 -6.705583
									CHANNELS 3 Xrotation Yrotation Zrotation
									JOINT Bip01_L_UpperArm
									{
										OFFSET 20.272615 -12.959999 -2.510836
										CHANNELS 3 Xrotation Yrotation Zrotation
										JOINT Bip01_L_Forearm
										{
											OFFSET -13.633495 -15.503681 0.653678
											CHANNELS 3 Xrotation Yrotation Zrotation
											JOINT Bip01_L_Hand
											{
												OFFSET 2.579988 -27.804686 1.136487
												CHANNELS 3 Xrotation Yrotation Zrotation
												JOINT Bip01_L_Finger0
												{
													OFFSET -0.281765 -19.659058 0.398696
													CHANNELS 3 Xrotation Yrotation Zrotation
													JOINT Bip01_Xtra01
													{
														OFFSET 4.083549 -5.738758 -0.666714
														CHANNELS 3 Xrotation Yrotation Zrotation
														JOINT Bip01_Xtra01Nub
														{
															OFFSET 6.758158 -0.395525 -0.023239
															CHANNELS 3 Xrotation Yrotation Zrotation
															End Site
															{
																OFFSET 6.764923 -0.254147 -0.029908
															}
														}
													}
													JOINT Bip01_L_Finger0Nub
													{
														OFFSET -0.012636 -9.629153 0.045740
														CHANNELS 3 Xrotation Yrotation Zrotation
														End Site
														{
															OFFSET 0.988407 0.004791 8.293357
														}
													}
												}
											}
										}
									}
								}
								JOINT BN_hair03_01
								{
									OFFSET -5.894140 16.270622 -2.498433
									CHANNELS 3 Xrotation Yrotation Zrotation
									JOINT BN_hair03_02
									{
										OFFSET -0.189278 -7.800507 -6.219162
										CHANNELS 3 Xrotation Yrotation Zrotation
										JOINT BN_hair03_03
										{
											OFFSET 0.612345 -10.844475 -3.370718
											CHANNELS 3 Xrotation Yrotation Zrotation
											End Site
											{
												OFFSET -2.273296 2.862007 -10.769416
											}
										}
									}
								}
								JOINT Bip01_Neck1
								{
									OFFSET 9.383755 11.908699 -0.000007
									CHANNELS 3 Xrotation Yrotation Zrotation
									JOINT BN_hair02_01
									{
										OFFSET 9.126320 18.808022 -1.420810
										CHANNELS 3 Xrotation Yrotation Zrotation
										JOINT BN_hair02_02
										{
											OFFSET 0.393478 -5.181091 -5.248574
											CHANNELS 3 Xrotation Yrotation Zrotation
											JOINT BN_hair02_03
											{
												OFFSET 0.762280 -8.167076 -0.230047
												CHANNELS 3 Xrotation Yrotation Zrotation
												End Site
												{
													OFFSET -0.025837 -1.251419 -8.109770
												}
											}
										}
									}
									JOINT Bip01_Head
									{
										OFFSET 14.266129 10.475403 -0.000008
										CHANNELS 3 Xrotation Yrotation Zrotation
										JOINT BN_Reins_01
										{
											OFFSET 18.547455 -15.740112 -0.000035
											CHANNELS 3 Xrotation Yrotation Zrotation
											JOINT BN_Reins_02
											{
												OFFSET -5.372810 -5.884506 0.000028
												CHANNELS 3 Xrotation Yrotation Zrotation
												JOINT BN_Reins_03
												{
													OFFSET -6.395866 -15.947449 0.000070
													CHANNELS 3 Xrotation Yrotation Zrotation
													JOINT BN_Halter_R_01
													{
														OFFSET -1.234055 -3.096100 7.096737
														CHANNELS 3 Xrotation Yrotation Zrotation
														End Site
														{
															OFFSET 10.514435 -4.176861 -0.000004
														}
													}
													JOINT BN_Halter_L_01
													{
														OFFSET -1.234062 -3.096146 -7.096726
														CHANNELS 3 Xrotation Yrotation Zrotation
														End Site
														{
															OFFSET -10.514435 4.176865 -0.000000
														}
													}
													JOINT BN_Reins_04
													{
														OFFSET -6.737644 -16.971684 0.000074
														CHANNELS 3 Xrotation Yrotation Zrotation
														JOINT BN_Halter_R_02
														{
															OFFSET -4.688869 -11.781956 7.096771
															CHANNELS 3 Xrotation Yrotation Zrotation
															End Site
															{
																OFFSET 14.669624 -5.827511 -0.000006
															}
														}
														JOINT BN_Halter_L_02
														{
															OFFSET -4.688892 -11.782017 -7.096693
															CHANNELS 3 Xrotation Yrotation Zrotation
															End Site
															{
																OFFSET -14.669624 5.827507 -0.000002
															}
														}
														JOINT BN_Reins_05
														{
															OFFSET -6.822578 -16.971161 0.000074
															CHANNELS 3 Xrotation Yrotation Zrotation
															JOINT BN_Reins_06
															{
																OFFSET -6.140354 -15.095148 0.000066
																CHANNELS 3 Xrotation Yrotation Zrotation
																End Site
																{
																	OFFSET -15.095150 6.140352 -0.000002
																}
															}
														}
													}
												}
											}
										}
										JOINT BN_hair01_01
										{
											OFFSET 8.957344 8.870956 0.112121
											CHANNELS 3 Xrotation Yrotation Zrotation
											JOINT BN_hair01_02
											{
												OFFSET 6.002075 -2.962952 -3.121264
												CHANNELS 3 Xrotation Yrotation Zrotation
												End Site
												{
													OFFSET 5.917702 3.813591 -2.232396
												}
											}
										}
										JOINT BN_Eyebrow_R
										{
											OFFSET 11.795959 -0.430496 4.449781
											CHANNELS 3 Xrotation Yrotation Zrotation
											JOINT Bip01_Xtra06Nub
											{
												OFFSET 2.936661 -0.262573 3.246701
												CHANNELS 3 Xrotation Yrotation Zrotation
												End Site
												{
													OFFSET 2.768745 0.208199 3.394807
												}
											}
										}
										JOINT BN_Eyebrow_L
										{
											OFFSET 11.586395 -0.445618 -4.441728
											CHANNELS 3 Xrotation Yrotation Zrotation
											JOINT Bip01_Xtra05Nub
											{
												OFFSET 3.244698 -0.349442 -4.416700
												CHANNELS 3 Xrotation Yrotation Zrotation
												End Site
												{
													OFFSET 3.053162 0.072495 -4.564033
												}
											}
										}
										JOINT Bip01_R_Ear_01
										{
											OFFSET 7.142960 7.567184 4.311657
											CHANNELS 3 Xrotation Yrotation Zrotation
											JOINT Bip01_Xtra04Nub
											{
												OFFSET 9.464531 9.264214 1.682953
												CHANNELS 3 Xrotation Yrotation Zrotation
												End Site
												{
													OFFSET 8.448181 10.159340 1.910823
												}
											}
										}
										JOINT Bip01__L_Ear_01
										{
											OFFSET 7.214943 7.717056 -4.356771
											CHANNELS 3 Xrotation Yrotation Zrotation
											JOINT Bip01_Xtra03Nub
											{
												OFFSET 9.230225 8.944366 -2.322746
												CHANNELS 3 Xrotation Yrotation Zrotation
												End Site
												{
													OFFSET 8.170288 9.841324 -2.643566
												}
											}
										}
										JOINT Bip01_Jaw
										{
											OFFSET 9.196068 -4.110695 -0.000013
											CHANNELS 3 Xrotation Yrotation Zrotation
											JOINT Bip01_Ponytail1Nub
											{
												OFFSET 10.976463 -21.082108 -0.000053
												CHANNELS 3 Xrotation Yrotation Zrotation
												End Site
												{
													OFFSET 11.247093 -20.938980 0.000113
												}
											}
										}
										JOINT Bip01_HeadNub
										{
											OFFSET 29.954575 -18.249489 -0.000063
											CHANNELS 3 Xrotation Yrotation Zrotation
											End Site
											{
												OFFSET -9.198448 -13.366348 0.000168
											}
										}
									}
								}
							}
						}
					}
				}
			}
		}
	}
}
MOTION
Frames: 5
Frame Time: 0.033333
0.000000 0.000000 0.000000 0.000008 0.000000 -0.000000 -0.000000 0.000000 -0.000000 0.000000 0.000000 -0.000006 0.003491 -0.000000 -0.000008 0.582161 -2.533202 22.722144 -1.423532 3.067918 23.653109 -0.420584 1.153913 21.214248 0.327668 -0.922998 11.725002 0.203955 -1.572312 6.770907 0.143672 0.000484 10.382443 -6.188787 5.668778 -7.201921 0.531247 0.016599 -2.692627 0.031707 0.001716 -0.160761 6.394430 -4.508884 0.251810 0.000730 -0.000020 -0.003729 0.000101 -0.000138 0.000004 1.167165 -4.088780 -25.335438 1.989660 0.287934 10.192568 -0.033937 -0.001824 -0.172218 -4.321506 3.689624 5.055893 -0.000871 0.000018 -0.003712 -0.011449 -0.007395 -0.037117 0.143184 -0.019006 -11.498069 0.917530 -0.020778 6.784392 1.534299 -0.155300 -0.014723 -0.052408 1.540617 -5.471444 0.000078 -0.000112 -0.000056 -0.000052 -0.014928 0.015042 -0.008342 0.000150 0.012238 -1.358236 0.409829 -0.217201 4.630802 -0.692455 0.247582 3.912570 0.384486 -20.925963 -3.451295 -1.873367 20.031724 -3.207962 -0.975643 4.844459 -0.000582 -0.130194 3.174626 7.446949 1.278531 -1.144743 -3.074510 -0.038697 0.688097 -1.002535 -0.004123 -0.069893 -0.781891 0.140319 -0.478837 -0.804180 0.123462 -0.482653 -3.552863 -1.707594 20.499771 2.899527 -2.371097 6.291642 -0.001239 -0.031386 -0.766036 -8.638696 -2.083549 3.589020 4.960862 0.006871 -0.600853 2.691733 2.076474 -0.752314 0.036608 0.063819 2.451840 -0.000913 0.100574 2.451955 -0.000121 0.000012 0.000176 -0.084341 0.071523 -0.302019 1.007131 -0.951695 3.765729 -0.126582 1.503369 -6.994504 -0.000174 -0.000019 0.000172 1.575988 0.281607 -4.546334 -1.614455 -1.251520 -7.205554 -3.002041 -4.940461 29.017362 -0.000029 0.000324 33.480057 -0.441787 -0.458728 -72.796129 -0.000060 -0.000072 -21.993998 0.000020 -0.000008 -0.026805 0.000002 -0.000016 0.012750 -0.000096 -0.000109 -34.639899 0.000036 0.000015 0.015168 0.000025 -0.000010 0.012721 -0.000048 -0.000055 -24.223455 0.000013 -0.000013 -0.000048 -0.073023 0.030633 0.020258 7.012412 1.751778 7.564550 -8.277014 -15.533133 1.371288 0.024185 -0.030004 11.786593 0.012327 -0.002717 0.003929 0.023216 -0.032302 11.715983 0.089451 -0.130631 0.175108 0.050265 0.015085 11.755997 -0.154133 0.027260 -0.044371 0.022800 0.006693 11.747271 0.646568 0.597925 -1.496397 -0.004514 -0.052568 11.750689 0.000071 -0.000033 11.750675 
0.000000 0.000000 0.000000 0.000008 0.000000 -0.000000 -0.000000 0.000000 -0.000000 0.000000 0.000000 -0.000006 0.003491 -0.000000 -0.000008 0.469202 -2.714185 22.624018 -1.625497 3.484951 23.820896 -0.294057 0.860855 21.146442 0.285823 -0.770533 11.724015 0.203955 -1.572313 6.770907 0.128644 -0.041627 10.484743 -6.209012 5.732699 -7.256328 0.535767 0.016636 -2.715515 0.036452 0.001963 -0.184828 6.441996 -4.511782 0.256056 0.000730 -0.000019 -0.003729 0.000101 -0.000137 0.000004 1.148622 -4.031968 -25.378698 1.973319 0.284075 10.107614 -0.027860 -0.001508 -0.141388 -4.278071 3.673970 5.037555 -0.000861 -0.000419 -0.003715 -0.011449 -0.007395 -0.037117 0.097597 -0.025468 -11.398850 0.917530 -0.020778 6.784391 1.400916 -0.157389 -0.011550 -0.255903 1.535377 -5.620622 0.000078 -0.000112 -0.000056 -0.000052 -0.014928 0.015041 -0.008342 0.000153 0.012236 -1.500134 0.331895 -0.120058 4.231333 -0.562512 0.144800 3.636462 0.159161 -21.121378 -3.210027 -1.697224 19.413356 -3.142322 -1.495872 5.600023 0.000119 -0.154882 3.776792 8.197129 0.951462 -2.005392 -3.172836 -0.070732 1.736184 -0.998997 -0.004408 -0.114300 -0.781919 0.140320 -0.478839 -0.804180 0.123462 -0.482653 -3.369419 -1.410570 20.711391 3.225309 -2.270310 6.657625 -0.002620 -0.058242 -1.421635 -8.699320 -2.092778 3.829130 4.960862 0.006871 -0.600854 0.693842 2.088350 -0.661973 0.036636 0.063819 2.451840 -0.000913 0.100573 2.451955 0.194049 0.022537 -0.032626 -0.373848 0.030588 -0.234401 0.820108 -0.873309 3.412893 -0.190190 1.537003 -6.968762 0.025635 0.002526 -0.000320 1.405323 0.254420 -4.137662 -1.302928 -1.155307 -6.773788 -2.828319 -4.209236 28.433465 -0.000029 0.000324 33.480064 -0.441787 -0.458728 -72.796129 -0.000060 -0.000072 -21.993996 0.000020 -0.000008 -0.026803 0.000002 -0.000016 0.012749 -0.000096 -0.000109 -34.639899 0.000036 0.000015 0.015166 0.000025 -0.000010 0.012720 -0.000048 -0.000055 -24.223459 0.000013 -0.000013 -0.000051 -0.073038 0.030634 0.020254 6.429484 1.429652 7.273501 -8.345178 -15.679611 1.349072 0.024199 -0.030000 11.786613 0.016397 0.002750 0.001651 0.023232 -0.032300 11.715963 -0.008548 -0.088685 0.229957 0.050278 0.015108 11.755996 -0.284729 0.112624 -0.011666 0.022811 0.006717 11.747265 0.646591 0.597915 -1.495252 -0.004497 -0.052588 11.750682 0.000071 -0.000033 11.750672 
0.000000 0.000000 0.000000 0.000008 0.000000 -0.000000 -0.000000 0.000000 -0.000000 0.000000 0.000000 -0.000006 0.003491 -0.000000 -0.000008 0.434197 -3.060188 22.498174 -2.059013 4.354038 24.183407 -0.074585 0.327438 21.024101 0.214377 -0.497094 11.708911 0.203955 -1.572312 6.770907 0.106852 -0.096537 10.567911 -6.266385 5.816649 -7.294645 0.521142 0.016520 -2.641446 0.060263 0.003171 -0.305634 6.530800 -4.520949 0.267062 0.000730 -0.000019 -0.003729 0.000101 -0.000137 0.000004 1.121204 -3.839546 -25.468022 1.984655 0.286748 10.166541 -0.021904 -0.001194 -0.111184 -4.204959 3.600154 4.941611 -0.000863 -0.044494 -0.003722 -0.011449 -0.007395 -0.037117 0.037071 -0.038420 -11.274133 0.917530 -0.020778 6.784391 1.270150 -0.159472 -0.008461 -0.500589 1.521654 -5.745706 0.000078 -0.000112 -0.000056 -0.000052 -0.014927 0.015041 -0.008344 0.000151 0.012235 -1.860286 0.124069 0.140315 3.075561 -0.213219 -0.139901 3.302356 -0.088036 -21.260869 -2.978735 -1.363753 19.499118 -2.802780 -1.426713 6.400318 -0.000977 -0.109050 2.659005 8.199546 0.976270 -1.679665 -3.175051 -0.071603 1.763808 -0.995606 -0.004616 -0.157861 -0.781946 0.140320 -0.478841 -0.804181 0.123461 -0.482653 -3.147323 -1.066624 20.872923 3.567750 -2.130308 7.093997 -0.004649 -0.089952 -2.196306 -8.718367 -2.111915 4.083388 4.960862 0.006871 -0.600854 0.566740 2.197900 -0.500609 0.036662 0.063820 2.451840 -0.000913 0.100573 2.451954 0.663313 0.075410 -0.111855 -1.074759 -0.064541 -0.053100 0.173270 -0.663711 2.396447 -0.269210 1.573385 -6.957166 0.097911 0.009630 -0.001715 0.974134 0.182053 -3.110208 -0.431092 -0.883648 -5.454975 -2.594327 -3.351722 27.816907 -0.000029 0.000324 33.480061 -0.441787 -0.458728 -72.796129 -0.000060 -0.000072 -21.993996 0.000020 -0.000008 -0.026805 0.000002 -0.000016 0.012749 -0.000096 -0.000109 -34.639902 0.000036 0.000015 0.015172 0.000025 -0.000010 0.012730 -0.000048 -0.000055 -24.223447 0.000013 -0.000013 -0.000050 -0.073038 0.030629 0.020260 4.960413 0.653968 6.536933 -8.412104 -15.823216 1.327111 0.024223 -0.029996 11.786637 0.387293 0.494824 -0.212597 0.023245 -0.032296 11.715939 -0.220391 -0.002268 0.298263 0.050292 0.015133 11.756005 -0.547827 0.287290 0.021571 0.022822 0.006743 11.747261 0.648744 0.596508 -1.377267 -0.004479 -0.052609 11.750690 0.000071 -0.000033 11.750675 
0.000000 0.000000 0.000000 0.000008 0.000000 -0.000000 -0.000000 0.000000 -0.000000 0.000000 0.000000 -0.000006 0.003491 -0.000000 -0.000008 0.449488 -3.521932 22.343446 -2.486597 5.189943 24.567321 0.041949 0.037779 20.959766 0.169728 -0.347832 11.683830 0.203955 -1.572312 6.770908 0.081219 -0.162459 10.637904 -6.350140 5.916812 -7.310174 0.495507 0.016268 -2.511583 0.097080 0.004931 -0.492326 6.650996 -4.526881 0.288867 0.000730 -0.000019 -0.003729 0.000101 -0.000137 0.000004 1.070583 -3.609350 -25.529490 2.001097 0.290649 10.252052 -0.021904 -0.001193 -0.111182 -4.101779 3.579425 4.828338 -0.000863 -0.158246 -0.003597 -0.011449 -0.007396 -0.037117 -0.029058 -0.043133 -11.116725 0.917530 -0.020778 6.784390 1.138062 -0.161559 -0.005329 -0.786480 1.505828 -5.857539 0.000078 -0.000112 -0.000056 -0.000052 -0.014928 0.015041 -0.008344 0.000149 0.012236 -2.285141 -0.155666 0.479444 1.910121 0.145346 -0.420185 2.912697 -0.356965 -21.352768 -2.703497 -0.989668 19.516656 -2.433170 -1.327702 7.332852 -0.001116 -0.054487 1.328656 8.210266 1.006057 -1.214419 -3.178067 -0.073644 1.714346 -0.992391 -0.004753 -0.201869 -0.782001 0.140320 -0.478845 -0.804180 0.123462 -0.482653 -2.876477 -0.679477 20.981064 3.932107 -1.965796 7.600605 -0.007546 -0.126778 -3.096869 -8.708447 -2.146234 4.356630 4.960863 0.006871 -0.600854 0.438122 2.308039 -0.337369 0.036717 0.063820 2.451840 -0.000913 0.100573 2.451955 1.279902 0.140257 -0.215336 -1.985195 -0.194591 0.185327 -0.476090 -0.440398 1.372430 -0.358854 1.610690 -6.948832 0.215478 0.021125 -0.004093 0.361501 0.083453 -1.679676 0.442715 -0.588948 -4.127566 -2.301362 -2.382123 27.151858 -0.000029 0.000325 33.480064 -0.441787 -0.458728 -72.796129 -0.000060 -0.000072 -21.993993 0.000020 -0.000008 -0.026805 0.000002 -0.000016 0.012745 -0.000096 -0.000109 -34.639899 0.000035 0.000015 0.015166 0.000025 -0.000010 0.012720 -0.000048 -0.000055 -24.223461 0.000013 -0.000013 -0.000050 -0.073048 0.030642 0.020251 2.739224 -0.348851 5.460384 -8.479832 -15.968248 1.304714 0.024252 -0.029988 11.786679 0.761389 0.990216 -0.433906 0.023275 -0.032292 11.715896 -0.517686 0.117369 0.381072 0.050315 0.015181 11.756015 -0.923357 0.540169 0.055387 0.022848 0.006788 11.747244 0.650815 0.595165 -1.240138 -0.004444 -0.052651 11.750689 0.000071 -0.000033 11.750674 
0.000000 0.000000 0.000000 0.000008 0.000000 -0.000000 -0.000000 0.000000 -0.000000 0.000000 0.000000 -0.000006 0.003491 -0.000000 -0.000008 0.489733 -4.041814 22.162161 -2.888043 5.941716 24.973016 -0.085456 0.369613 21.084244 0.338585 -1.098245 11.408218 0.203955 -1.572312 6.770907 0.051717 -0.236127 10.704986 -6.448844 6.027813 -7.294225 0.467365 0.015925 -2.369012 0.141781 0.006908 -0.718984 6.770730 -4.533902 0.310529 0.000730 -0.000019 -0.003729 0.000101 -0.000137 0.000004 1.013832 -3.356495 -25.553659 2.013986 0.293725 10.319054 -0.021883 -0.001192 -0.111079 -3.977679 3.589678 4.706326 -0.001090 -0.319730 -0.004662 -0.011449 -0.007397 -0.037117 -0.109513 -0.044517 -10.932829 0.917530 -0.020778 6.784389 1.004706 -0.163664 -0.002199 -1.100095 1.491178 -5.970188 0.000078 -0.000112 -0.000056 -0.000052 -0.014928 0.015042 -0.008344 0.000151 0.012236 -2.712730 -0.490511 0.872026 0.451372 0.446553 -0.624719 2.482122 -0.639498 -21.399819 -2.397816 -0.587359 19.470726 -2.026236 -1.207199 8.375622 0.000273 0.007778 -0.189842 8.217160 1.051728 -0.634476 -3.172516 -0.073705 1.600972 -0.989017 -0.005008 -0.246289 -0.782107 0.140319 -0.478853 -0.804180 0.123461 -0.482653 -2.581196 -0.262060 21.048613 4.329601 -1.794292 8.174055 -0.011465 -0.167839 -4.102475 -8.690148 -2.181106 4.650087 4.960862 0.006871 -0.600854 0.338085 2.423852 -0.158169 0.036824 0.063820 2.451839 -0.000913 0.100574 2.451955 1.901289 0.204443 -0.320281 -2.895352 -0.340765 0.465649 -1.127639 -0.203138 0.341069 -0.452295 1.645792 -6.922089 0.375955 0.036815 -0.007214 -0.290723 -0.023540 -0.050774 1.313073 -0.242612 -2.329865 -1.953924 -1.325530 26.436594 -0.000029 0.000324 33.480064 -0.441788 -0.458728 -72.796129 -0.000060 -0.000072 -21.994001 0.000020 -0.000008 -0.026803 0.000002 -0.000016 0.012747 -0.000096 -0.000109 -34.639895 0.000036 0.000015 0.015165 0.000025 -0.000010 0.012726 -0.000048 -0.000055 -24.223455 0.000013 -0.000013 -0.000051 -0.073059 0.030647 0.020258 0.477137 -1.318437 4.334287 -8.548315 -16.114655 1.281887 0.024319 -0.029970 11.786764 1.183897 1.550303 -0.689117 0.023332 -0.032278 11.715807 -0.878026 0.257475 0.466800 0.050366 0.015274 11.756023 -1.371380 0.845873 0.077492 0.022898 0.006879 11.747232 0.653157 0.591486 -1.079876 -0.004375 -0.052733 11.750681 0.000071 -0.000033 11.750673 
